<?xml version="1.0" encoding="UTF-8" standalone="no"?>
<!-- Created with Inkscape (http://www.inkscape.org/) -->
<svg
   xmlns:svg="http://www.w3.org/2000/svg"
   xmlns="http://www.w3.org/2000/svg"
   version="1.0"
   width="620"
   height="371.51999"
   id="svg2">
  <defs
     id="defs4" />
  <g
     transform="translate(576.21429,-1182.6945)"
     id="layer1">
    <path
       d="M -115.44859,1541.378 C -116.35074,1539.8166 -120.50305,1532.622 -124.67591,1525.3902 L -132.26296,1512.2413 L -146.34175,1512.2384 L -160.42055,1512.2354 L -160.42055,1511.4243 L -160.42055,1510.6132 L -146.319,1510.6132 L -132.21747,1510.6132 L -123.08609,1494.7486 L -113.95473,1478.8841 L -95.04687,1478.8738 L -76.138995,1478.8635 L -67.005159,1494.7313 L -57.871301,1510.5991 L -44.60363,1510.6061 L -31.335959,1510.6132 L -31.335959,1511.4224 L -31.335959,1512.2316 L -44.583468,1512.2915 L -57.831,1512.3513 L -67.005252,1528.276 L -76.179528,1544.2007 L -94.9939,1544.2088 L -113.80829,1544.2169 L -115.44859,1541.378 z M -68.125414,1527.029 L -59.146828,1511.4633 L -68.055472,1496.0325 L -76.964117,1480.6016 L -94.99594,1480.5461 L -113.02773,1480.4907 L -121.96405,1495.9792 L -130.90039,1511.4678 L -123.00692,1525.1334 C -118.66553,1532.6494 -114.61672,1539.6529 -114.00959,1540.6968 L -112.90567,1542.5947 L -95.00484,1542.5947 L -77.103978,1542.5947 L -68.125414,1527.029 z M -118.52015,1525.045 L -126.09835,1511.905 L -125.47742,1511.4977 C -125.13589,1511.2737 -124.78676,1511.1655 -124.70154,1511.2573 C -124.61631,1511.3492 -121.18446,1517.2532 -117.07519,1524.3773 L -109.60382,1537.3304 L -110.15703,1537.7557 C -110.46129,1537.9897 -110.76238,1538.182 -110.82611,1538.1831 C -110.88984,1538.1842 -114.35216,1532.2721 -118.52015,1525.045 z M -79.840107,1537.8135 L -80.487964,1537.4703 L -79.608358,1535.9026 C -79.124603,1535.0404 -75.709794,1529.1099 -72.019922,1522.7237 L -65.311069,1511.1124 L -64.661869,1511.4481 C -64.304812,1511.6328 -64.012668,1511.8388 -64.012668,1511.906 C -64.012668,1512.048 -78.830976,1537.7665 -79.047407,1538.0002 C -79.127083,1538.0862 -79.483815,1538.0022 -79.840107,1537.8135 z M -110.13086,1485.1207 L -110.13086,1484.4255 L -94.95125,1484.4255 L -79.771648,1484.4255 L -79.771648,1485.1207 L -79.771648,1485.816 L -94.95125,1485.816 L -110.13086,1485.816 L -110.13086,1485.1207 z M -23.918717,1520.2072 C -27.319991,1518.9672 -29.235634,1515.7631 -28.954916,1511.7835 C -28.716399,1508.4021 -27.198624,1505.9141 -24.660733,1504.7442 C -23.035426,1503.9949 -19.84414,1504.0317 -18.2421,1504.8181 C -16.657512,1505.596 -15.248844,1507.1093 -14.621289,1508.708 C -13.861892,1510.6425 -13.865414,1514.1214 -14.628728,1516.0377 C -15.280107,1517.6731 -16.629678,1519.1017 -18.235797,1519.8562 C -19.76597,1520.575 -22.454267,1520.741 -23.918717,1520.2072 z M -18.69677,1517.9039 C -17.936214,1517.43 -17.373549,1516.8241 -16.876191,1515.9434 C -16.209887,1514.7636 -16.156353,1514.5039 -16.156353,1512.4516 C -16.156353,1510.4422 -16.221868,1510.1061 -16.855148,1508.8672 C -17.384696,1507.8312 -17.822216,1507.3341 -18.661521,1506.8153 C -21.397929,1505.1235 -25.22305,1506.236 -26.351162,1509.0518 C -26.886457,1510.3879 -27.061266,1513.051 -26.709841,1514.5159 C -25.838601,1518.1476 -21.817025,1519.848 -18.69677,1517.9039 z M -191.01151,1512.3513 L -191.01151,1504.3559 L -189.96864,1504.3559 L -188.92576,1504.3559 L -188.92576,1507.6004 L -188.92576,1510.8449 L -184.87014,1510.8449 L -180.81452,1510.8449 L -180.81452,1507.6004 L -180.81452,1504.3559 L -179.77165,1504.3559 L -178.72878,1504.3559 L -178.72878,1512.3513 L -178.72878,1520.3467 L -179.77165,1520.3467 L -180.81452,1520.3467 L -180.81452,1516.5228 L -180.81452,1512.6989 L -184.87014,1512.6989 L -188.92576,1512.6989 L -188.92576,1516.5228 L -188.92576,1520.3467 L -189.96864,1520.3467 L -191.01151,1520.3467 L -191.01151,1512.3513 z M -175.02078,1512.3513 L -175.02078,1504.3559 L -173.90548,1504.3559 L -172.79021,1504.3559 L -168.86493,1510.4623 L -164.93967,1516.5686 L -164.87795,1510.4623 L -164.81621,1504.3559 L -163.77714,1504.3559 L -162.73805,1504.3559 L -162.73805,1512.3513 L -162.73805,1520.3467 L -163.85334,1520.3467 L -164.96861,1520.3467 L -168.8939,1514.2403 L -172.81916,1508.134 L -172.88087,1514.2403 L -172.94261,1520.3467 L -173.98168,1520.3467 L -175.02078,1520.3467 L -175.02078,1512.3513 z M -16.764974,1503.2213 L -17.373595,1502.8443 L -10.485947,1490.9118 L -3.598299,1478.9794 L 15.093705,1478.9201 L 33.78571,1478.8607 L 33.78571,1479.6732 L 33.78571,1480.4857 L 15.53542,1480.496 L -2.71487,1480.5062 L -9.312784,1491.9854 C -12.941637,1498.299 -15.96597,1503.4947 -16.033525,1503.5315 C -16.10108,1503.5683 -16.430235,1503.4287 -16.764974,1503.2213 z M -181.18794,1491.2583 L -187.39798,1480.4885 L -205.8271,1480.4292 L -224.25621,1480.3699 L -233.57457,1464.2632 C -238.69967,1455.4046 -242.89978,1448.014 -242.90817,1447.8397 C -242.9195,1447.6046 -226.75482,1419.3268 -224.93997,1416.4069 C -224.68312,1415.9937 -225.62328,1414.2608 -233.61586,1400.4162 L -242.57985,1384.889 L -260.52548,1384.889 L -278.47111,1384.889 L -287.44381,1400.4137 C -292.37878,1408.9523 -296.38483,1415.9917 -296.34613,1416.0568 C -294.47716,1419.2025 -278.38115,1447.2346 -278.38115,1447.3438 C -278.38115,1447.4757 -279.39607,1448.0408 -279.63294,1448.0408 C -279.67211,1448.0408 -283.76048,1441.0039 -288.71821,1432.4032 L -297.73225,1416.7657 L -316.15635,1416.7569 L -334.58045,1416.748 L -343.76445,1400.8185 L -352.94844,1384.889 L -366.99736,1384.8292 L -381.04627,1384.7695 L -381.04627,1384.0779 L -381.04627,1383.3862 L -366.99364,1383.3265 L -352.94102,1383.2667 L -343.76074,1367.3389 L -334.58045,1351.4111 L -315.70171,1351.4641 L -296.82293,1351.517 L -287.65283,1367.3919 L -278.48272,1383.2667 L -262.15151,1383.3258 L -245.82031,1383.3849 L -236.04256,1366.448 L -226.26481,1349.5112 L -234.41209,1335.3925 L -242.55936,1321.2737 L -260.70201,1321.2737 L -278.84465,1321.2737 L -278.84465,1320.4626 L -278.84465,1319.6514 L -260.71023,1319.6424 L -242.57582,1319.6334 L -233.41056,1303.7096 L -224.24532,1287.7859 L -207.36875,1287.67 L -190.49218,1287.5541 L -184.66018,1277.4473 C -181.45255,1271.8886 -178.67404,1267.1084 -178.48569,1266.8247 C -178.17703,1266.3599 -178.07971,1266.3379 -177.50004,1266.602 C -177.1463,1266.7632 -176.90562,1267.0221 -176.96523,1267.1775 C -177.02484,1267.3328 -179.68609,1271.9811 -182.87913,1277.507 L -188.68467,1287.5541 L -187.59158,1287.67 C -186.58799,1287.7764 -186.45371,1287.8672 -185.95158,1288.78 L -185.40467,1289.7741 L -179.48595,1279.51 C -176.23063,1273.8647 -173.5297,1269.2029 -173.48384,1269.1503 C -173.438,1269.0977 -173.12794,1269.1789 -172.79482,1269.3307 C -172.39322,1269.5136 -172.22444,1269.7415 -172.29385,1270.007 C -172.35144,1270.2272 -175.0869,1275.0475 -178.37265,1280.7188 C -181.65837,1286.3902 -184.35149,1291.1346 -184.3573,1291.2621 C -184.36312,1291.3896 -180.64736,1297.9365 -176.10008,1305.8108 C -171.55278,1313.6851 -167.80715,1320.2051 -167.77647,1320.2996 C -167.74579,1320.3941 -171.9443,1327.7949 -177.10653,1336.7457 L -186.49239,1353.02 L -203.30103,1353.0217 L -220.1097,1353.0234 L -229.87545,1369.9377 L -239.64117,1386.852 L -231.49088,1400.9873 L -223.34059,1415.1226 L -204.91649,1415.1324 L -186.49239,1415.1421 L -177.16446,1431.3236 C -172.03411,1440.2234 -167.83654,1447.6301 -167.83654,1447.7829 C -167.83654,1447.9358 -171.91197,1455.1218 -176.89306,1463.7519 C -181.87413,1472.3819 -185.96741,1479.497 -185.98924,1479.5632 C -186.01105,1479.6295 -183.26528,1484.4679 -179.88752,1490.3154 C -176.50977,1496.1628 -173.71343,1501.0301 -173.67343,1501.1316 C -173.63343,1501.233 -173.91058,1501.4763 -174.28931,1501.6721 L -174.97788,1502.0282 L -181.18794,1491.2583 z M -178.45258,1463.3161 L -169.48576,1447.7759 L -178.44938,1432.2652 L -187.41299,1416.7546 L -205.37807,1416.7546 L -223.34314,1416.7546 L -232.2913,1432.2675 L -241.23948,1447.7805 L -232.29005,1463.3162 L -223.34059,1478.8519 L -205.37999,1478.8541 L -187.41939,1478.8563 L -178.45258,1463.3161 z M -220.67547,1474.1126 L -220.67547,1473.3015 L -205.37999,1473.3015 L -190.08451,1473.3015 L -190.08451,1474.1126 L -190.08451,1474.9237 L -205.37999,1474.9237 L -220.67547,1474.9237 L -220.67547,1474.1126 z M -235.85508,1447.7674 C -236.11,1447.6252 -236.3516,1447.4826 -236.39197,1447.4504 C -236.46768,1447.39 -221.6777,1421.6509 -221.37751,1421.3205 C -221.20474,1421.1304 -219.98022,1421.5835 -219.98022,1421.8375 C -219.98022,1422.1416 -234.94977,1447.8931 -235.16395,1447.9574 C -235.28914,1447.995 -235.60015,1447.9095 -235.85508,1447.7674 z M -176.13364,1447.2876 C -177.2361,1445.4643 -190.57292,1422.2895 -190.67932,1422.0123 C -190.81577,1421.6567 -189.64521,1421.0362 -189.37436,1421.3205 C -189.17248,1421.5324 -174.56831,1446.8154 -174.41105,1447.2252 C -174.3291,1447.4388 -175.20094,1448.0408 -175.59216,1448.0408 C -175.63951,1448.0408 -175.88317,1447.7018 -176.13364,1447.2876 z M -288.83297,1399.6878 C -281.18894,1386.4305 -279.9631,1384.1772 -280.14235,1383.7127 C -280.25712,1383.4153 -284.2618,1376.3919 -289.04164,1368.1051 L -297.73225,1353.0383 L -315.69315,1353.0309 L -333.65403,1353.0234 L -342.62714,1368.5583 L -351.60025,1384.0932 L -342.63552,1399.6128 L -333.67079,1415.1323 L -315.70152,1415.1272 L -297.73225,1415.1221 L -288.83297,1399.6878 z M -330.98833,1410.3814 L -330.98833,1409.5703 L -315.80873,1409.5703 L -300.62912,1409.5703 L -300.62912,1410.3814 L -300.62912,1411.1926 L -315.80873,1411.1926 L -330.98833,1411.1926 L -330.98833,1410.3814 z M -346.11634,1384.1216 C -346.46712,1383.9088 -346.71269,1383.6293 -346.66205,1383.5007 C -346.37902,1382.7816 -331.69832,1357.5483 -331.53369,1357.498 C -331.42495,1357.4648 -331.10069,1357.6186 -330.81313,1357.8397 L -330.29033,1358.2418 L -337.84639,1371.3337 C -342.00222,1378.5342 -345.41957,1384.4442 -345.4405,1384.467 C -345.46143,1384.4899 -345.76555,1384.3344 -346.11634,1384.1216 z M -293.55814,1371.3724 L -301.13174,1358.2505 L -300.623,1357.8386 C -300.34321,1357.612 -300.04126,1357.4266 -299.95204,1357.4266 C -299.82866,1357.4266 -284.96643,1382.917 -284.69793,1383.5892 C -284.66694,1383.6668 -284.94374,1383.9022 -285.31306,1384.1123 L -285.98453,1384.4943 L -293.55814,1371.3724 z M -231.25357,1369.197 C -226.20038,1360.439 -222.06597,1353.2171 -222.06597,1353.1484 C -222.06597,1353.0796 -222.56133,1353.0226 -223.16678,1353.0216 C -224.21118,1353.0199 -224.29526,1352.9714 -224.80752,1352.0745 C -225.10449,1351.5546 -225.37834,1351.1643 -225.4161,1351.2072 C -225.57081,1351.3831 -243.67846,1382.8052 -243.78472,1383.0821 C -243.86956,1383.3032 -243.59851,1383.3826 -242.75916,1383.3826 C -241.66641,1383.3826 -241.59596,1383.4223 -241.08873,1384.3248 C -240.79746,1384.8431 -240.53262,1385.2341 -240.50018,1385.1939 C -240.46773,1385.1537 -236.30676,1377.9551 -231.25357,1369.197 z M -178.48217,1335.9635 C -173.58305,1327.4728 -169.6088,1320.4073 -169.65054,1320.2624 C -169.69225,1320.1176 -173.70732,1313.0929 -178.5729,1304.652 L -187.41939,1289.305 L -205.37999,1289.3079 L -223.34059,1289.3109 L -232.26296,1304.8092 C -237.17026,1313.3332 -241.18532,1320.3503 -241.18532,1320.4027 C -241.18532,1320.4551 -237.17445,1327.4511 -232.27227,1335.9495 L -223.3592,1351.4011 L -205.37445,1351.4011 L -187.38968,1351.4011 L -178.48217,1335.9635 z M -190.144,1346.7868 C -190.49538,1346.5843 -190.73964,1346.3047 -190.68685,1346.1657 C -190.53721,1345.7716 -175.92919,1320.4858 -175.73093,1320.2777 C -175.4647,1319.9982 -174.28931,1320.6133 -174.42317,1320.9621 C -174.52103,1321.2171 -189.39325,1347.075 -189.47626,1347.1345 C -189.49214,1347.1458 -189.79262,1346.9894 -190.144,1346.7868 z M -235.79832,1320.3948 C -236.14949,1320.181 -236.41021,1319.9419 -236.3777,1319.8634 C -236.13526,1319.2779 -221.24235,1293.6966 -221.14627,1293.7006 C -221.07853,1293.7035 -220.78099,1293.892 -220.48509,1294.1197 L -219.94706,1294.5336 L -227.4126,1307.4981 C -231.51865,1314.6285 -234.94152,1320.5348 -235.01897,1320.623 C -235.09644,1320.7112 -235.44715,1320.6085 -235.79832,1320.3948 z M -399.25885,1432.0085 C -404.34622,1423.1907 -408.49041,1415.9142 -408.46816,1415.8385 C -408.4331,1415.7191 -405.88729,1411.2991 -398.15167,1397.9273 L -396.30961,1394.7431 L -395.62285,1395.0982 C -395.24514,1395.2935 -394.97755,1395.5271 -395.02821,1395.6173 C -395.07887,1395.7074 -397.70637,1400.2656 -400.8671,1405.7465 C -404.02783,1411.2273 -406.61125,1415.816 -406.60803,1415.9434 C -406.60481,1416.0709 -402.57284,1423.1469 -397.64809,1431.6679 C -392.72335,1440.1889 -388.69401,1447.2168 -388.69401,1447.2855 C -388.69401,1447.4769 -389.47317,1448.0251 -389.75711,1448.0334 C -389.8957,1448.0375 -394.17148,1440.8262 -399.25885,1432.0085 z M -395.41475,1384.889 L -395.41475,1376.8936 L -394.29946,1376.8936 L -393.18417,1376.8936 L -389.25891,1383 L -385.33364,1389.1063 L -385.27192,1383 L -385.21019,1376.8936 L -384.17111,1376.8936 L -383.13202,1376.8936 L -383.13202,1384.889 L -383.13202,1392.8843 L -384.24731,1392.8843 L -385.3626,1392.8843 L -389.28786,1386.778 L -393.21313,1380.6716 L -393.27485,1386.778 L -393.33658,1392.8843 L -394.37566,1392.8843 L -395.41475,1392.8843 L -395.41475,1384.889 z M -509.4163,1368.7339 C -514.5679,1359.7924 -518.7796,1352.3649 -518.77562,1352.2285 C -518.77165,1352.0921 -514.67504,1344.8998 -509.67204,1336.2455 L -500.57568,1320.5105 L -500.92401,1319.7913 C -501.11559,1319.3957 -503.89123,1314.5409 -507.0921,1309.0028 C -510.29297,1303.4647 -512.91186,1298.8667 -512.91186,1298.7851 C -512.91186,1298.6572 -511.88371,1298.0987 -511.64823,1298.0987 C -511.60254,1298.0987 -508.76785,1302.9481 -505.34892,1308.8751 L -499.13268,1319.6514 L -480.70361,1319.6617 L -462.27454,1319.672 L -453.14397,1335.5352 L -444.0134,1351.3984 L -425.58053,1351.4577 L -407.14766,1351.517 L -400.71344,1362.641 C -394.2868,1373.7519 -394.2798,1373.7655 -394.7662,1374.1782 C -395.03403,1374.4054 -395.36774,1374.5533 -395.50777,1374.5067 C -395.6478,1374.4602 -398.52599,1369.6119 -401.90374,1363.7328 L -408.04511,1353.0434 L -426.00571,1353.0366 L -443.96632,1353.0297 L -453.16014,1368.9594 L -462.35397,1384.889 L -481.20186,1384.9401 L -500.04975,1384.9912 L -509.4163,1368.7339 z M -454.35945,1367.8782 C -449.47173,1359.4144 -445.47269,1352.3867 -445.47269,1352.2608 C -445.47269,1352.135 -449.46168,1345.1129 -454.33712,1336.6561 L -463.20154,1321.2802 L -481.19969,1321.2769 L -499.19784,1321.2737 L -504.05293,1329.6746 C -506.72324,1334.2951 -510.75037,1341.267 -513.00213,1345.1676 L -517.09622,1352.2596 L -508.10949,1367.8218 L -499.12275,1383.3841 L -481.18448,1383.3254 L -463.24621,1383.2667 L -454.35945,1367.8782 z M -496.45763,1378.6317 L -496.45763,1377.8206 L -481.27802,1377.8206 L -466.09841,1377.8206 L -466.09841,1378.6317 L -466.09841,1379.4429 L -481.27802,1379.4429 L -496.45763,1379.4429 L -496.45763,1378.6317 z M -511.70454,1352.2729 C -511.99648,1352.1323 -512.20505,1351.8947 -512.16804,1351.745 C -512.13102,1351.5952 -508.72299,1345.6236 -504.59464,1338.4747 L -497.08855,1325.4766 L -496.4834,1325.8543 C -496.15057,1326.062 -495.84648,1326.2518 -495.80765,1326.2761 C -495.68878,1326.3505 -510.87903,1352.561 -511.03129,1352.5442 C -511.10963,1352.5356 -511.4126,1352.4135 -511.70454,1352.2729 z M -451.81943,1352.0385 C -452.67355,1350.6967 -466.56191,1326.5278 -466.56191,1326.3832 C -466.56191,1326.1252 -465.42197,1325.5809 -465.24733,1325.7555 C -465.16124,1325.8416 -461.7294,1331.7253 -457.62104,1338.8304 L -450.15128,1351.7488 L -450.65092,1352.1492 C -451.30315,1352.6719 -451.42347,1352.6605 -451.81943,1352.0385 z M -123.34059,1336.7457 C -128.50282,1327.7949 -132.70152,1320.3946 -132.67105,1320.3008 C -132.64057,1320.2069 -128.54616,1313.0839 -123.57234,1304.4718 C -118.59853,1295.8598 -114.50412,1288.7371 -114.47364,1288.6436 C -114.44317,1288.5502 -118.4329,1281.5142 -123.33974,1273.0081 L -132.26122,1257.5425 L -146.22502,1257.5425 L -160.1888,1257.5425 L -160.1888,1256.7314 L -160.1888,1255.9203 L -145.76238,1255.9273 L -131.33596,1255.9344 L -122.20291,1271.8008 L -113.06984,1287.6672 L -94.63756,1287.7265 L -76.205275,1287.7859 L -67.03721,1303.6607 L -57.869169,1319.5356 L -44.023189,1319.5953 L -30.17721,1319.6551 L -30.17721,1320.4644 L -30.17721,1321.2737 L -44.027801,1321.2737 L -57.878369,1321.2737 L -67.02896,1337.1439 L -76.179528,1353.0141 L -95.06713,1353.0171 L -113.95473,1353.02 L -123.34059,1336.7457 z M -68.22458,1336.0477 C -63.348195,1327.6033 -59.344464,1320.59 -59.327407,1320.4626 C -59.310351,1320.3351 -63.303676,1313.2735 -68.201475,1304.7701 L -77.106527,1289.3094 L -95.06713,1289.3062 L -113.02773,1289.303 L -121.88205,1304.6787 C -126.75195,1313.1353 -130.76701,1320.1577 -130.80442,1320.2839 C -130.84185,1320.4102 -126.86319,1327.4632 -121.96296,1335.9573 L -113.05346,1351.4011 L -95.07211,1351.4011 L -77.090745,1351.4011 L -68.22458,1336.0477 z M -110.36261,1346.6503 L -110.36261,1345.8392 L -95.06713,1345.8392 L -79.771648,1345.8392 L -79.771648,1346.6503 L -79.771648,1347.4614 L -95.06713,1347.4614 L -110.36261,1347.4614 L -110.36261,1346.6503 z M -125.44032,1320.4182 C -125.75128,1320.2085 -126.03466,1320.0168 -126.07005,1319.9923 C -126.17619,1319.9186 -111.05964,1293.8157 -110.87798,1293.7589 C -110.78572,1293.73 -110.4691,1293.8918 -110.17438,1294.1184 L -109.63855,1294.5303 L -117.17471,1307.5829 C -121.3196,1314.7618 -124.74778,1320.6724 -124.7929,1320.7175 C -124.83802,1320.7626 -125.12935,1320.6279 -125.44032,1320.4182 z M -72.915403,1307.6601 L -80.495078,1294.5298 L -79.959551,1294.1181 C -79.66502,1293.8917 -79.348543,1293.73 -79.256283,1293.7589 C -79.164024,1293.7877 -75.692042,1299.6947 -71.540756,1306.8854 C -65.880015,1316.6908 -64.067871,1320.0099 -64.292506,1320.1609 C -65.349006,1320.871 -64.982286,1321.4027 -72.915403,1307.6601 z M 5.848375,1333.6939 C 5.0724075,1333.3559 4.0089776,1332.2107 3.7689776,1331.4545 C 3.5866137,1330.8799 3.6051073,1330.8558 4.3770193,1330.662 C 4.8943542,1330.5322 5.0210285,1330.6125 5.2782475,1331.2335 C 5.6361618,1332.0976 6.5685604,1332.6294 7.7255245,1332.6294 C 8.378433,1332.6294 8.7510633,1332.4497 9.3592904,1331.8415 C 10.400264,1330.8005 10.437993,1329.7176 9.4709938,1328.6354 C 8.8937053,1327.9893 8.6394063,1327.8786 7.732871,1327.8786 C 6.7289544,1327.8786 6.6709938,1327.8438 6.6709938,1327.2412 C 6.6709938,1326.7126 6.7717817,1326.6039 7.261886,1326.6039 C 9.1464978,1326.6039 10.09308,1324.9064 8.8831607,1323.6965 C 8.0768339,1322.8902 6.8425813,1322.9204 5.995791,1323.7672 C 5.6440413,1324.119 5.3105071,1324.544 5.2546091,1324.7117 C 5.1849219,1324.9207 4.9521062,1324.9663 4.5144005,1324.8564 C 3.9984793,1324.7269 3.9031143,1324.6011 4.0178999,1324.2016 C 4.2599393,1323.3589 4.9312487,1322.5659 5.7604723,1322.1431 C 7.9427899,1321.0303 10.8452,1322.5394 10.841631,1324.785 C 10.840635,1325.4096 10.037807,1326.8357 9.6871468,1326.8357 C 9.2457794,1326.8357 9.4508316,1327.2242 10.031898,1327.489 C 10.850438,1327.862 11.536556,1329.0992 11.533056,1330.196 C 11.524528,1332.8788 8.3962313,1334.8037 5.848375,1333.6939 z M -23.729794,1329.307 C -25.80217,1328.723 -27.42509,1326.9119 -27.761474,1324.8079 L -27.918948,1323.8229 L -26.873966,1323.8229 C -25.837164,1323.8229 -25.827036,1323.8307 -25.579713,1324.8129 C -25.141266,1326.5541 -23.338508,1327.7674 -21.204348,1327.7576 C -18.221057,1327.7439 -16.3894,1325.2924 -18.091046,1323.5907 C -18.71962,1322.9621 -19.434545,1322.6915 -23.239273,1321.6417 C -25.541243,1321.0065 -26.866666,1319.7775 -27.09633,1318.0652 C -27.263166,1316.8214 -26.666689,1315.2238 -25.746318,1314.4494 C -24.350721,1313.2751 -21.553525,1312.8506 -19.427222,1313.4905 C -17.460246,1314.0825 -16.285901,1315.3536 -15.893549,1317.3154 C -15.75086,1318.0289 -15.751277,1318.0292 -16.804209,1318.0292 C -17.786527,1318.0292 -17.867963,1317.9822 -18.010513,1317.3332 C -18.211718,1316.4171 -19.303352,1315.3488 -20.227013,1315.1641 C -22.902054,1314.6291 -25.078717,1315.6117 -25.078717,1317.3543 C -25.078717,1318.4307 -24.275518,1319.1391 -22.45633,1319.667 C -21.540594,1319.9327 -20.082865,1320.3552 -19.216909,1320.6058 C -17.384418,1321.1361 -15.979412,1322.2559 -15.562865,1323.5181 C -14.900802,1325.5241 -15.941196,1327.846 -17.96991,1328.89 C -19.316932,1329.5832 -22.047824,1329.7809 -23.729794,1329.307 z M -7.927987,1329.2454 C -11.329261,1328.0055 -13.244904,1324.8013 -12.964186,1320.8217 C -12.725669,1317.4404 -11.207894,1314.9524 -8.670003,1313.7824 C -7.044696,1313.0331 -3.853409,1313.0699 -2.25137,1313.8564 C -0.666781,1314.6342 0.741886,1316.1476 1.369441,1317.7462 C 2.1288385,1319.6807 2.1253159,1323.1596 1.3620019,1325.076 C 0.710623,1326.7113 -0.638948,1328.14 -2.245067,1328.8945 C -3.77524,1329.6133 -6.463537,1329.7793 -7.927987,1329.2454 z M -2.70604,1326.9421 C -1.945484,1326.4683 -1.382819,1325.8624 -0.88546,1324.9817 C -0.219157,1323.8018 -0.165623,1323.5422 -0.165623,1321.4898 C -0.165623,1319.4805 -0.231138,1319.1444 -0.864418,1317.9054 C -1.393966,1316.8694 -1.831486,1316.3724 -2.670791,1315.8535 C -5.407199,1314.1617 -9.23232,1315.2743 -10.360432,1318.0901 C -10.895727,1319.4262 -11.070536,1322.0893 -10.719111,1323.5541 C -9.847871,1327.1859 -5.826295,1328.8862 -2.70604,1326.9421 z M 12.464737,1316.0593 C 12.464737,1315.7628 13.095606,1315.7117 16.752106,1315.7117 C 20.408607,1315.7117 21.039476,1315.7628 21.039476,1316.0593 C 21.039476,1316.3558 20.408607,1316.4069 16.752106,1316.4069 C 13.095606,1316.4069 12.464737,1316.3558 12.464737,1316.0593 z M -531.81095,1301.9442 C -532.58692,1301.6062 -533.65034,1300.461 -533.89035,1299.7047 C -534.07272,1299.1301 -534.05423,1299.106 -533.28231,1298.9123 C -532.76497,1298.7825 -532.63831,1298.8628 -532.38108,1299.4838 C -532.02317,1300.3479 -531.09076,1300.8797 -529.93379,1300.8797 C -529.28089,1300.8797 -528.90827,1300.7 -528.30004,1300.0918 C -527.25908,1299.0508 -527.22134,1297.9679 -528.18833,1296.8857 C -528.76563,1296.2396 -529.01992,1296.1288 -529.92645,1296.1288 C -530.93037,1296.1288 -530.98833,1296.0941 -530.98833,1295.4915 C -530.98833,1294.9629 -530.88755,1294.8542 -530.39745,1294.8542 C -528.51283,1294.8542 -527.56625,1293.1567 -528.77618,1291.9468 C -529.58248,1291.1405 -530.81674,1291.1707 -531.66353,1292.0175 C -532.01527,1292.3693 -532.34881,1292.7943 -532.40472,1292.962 C -532.4744,1293.171 -532.70722,1293.2165 -533.14493,1293.1067 C -533.66084,1292.9772 -533.75621,1292.8514 -533.64144,1292.4519 C -533.39939,1291.6092 -532.72809,1290.8162 -531.89886,1290.3934 C -529.71654,1289.2806 -526.81413,1290.7896 -526.81771,1293.0352 C -526.8187,1293.6599 -527.62153,1295.086 -527.97218,1295.086 C -528.41355,1295.086 -528.20851,1295.4745 -527.62743,1295.7393 C -526.8089,1296.1122 -526.12278,1297.3495 -526.12627,1298.4463 C -526.1348,1301.1291 -529.2631,1303.054 -531.81095,1301.9442 z M -545.81907,1297.264 C -549.22035,1296.024 -551.13598,1292.8199 -550.85526,1288.8403 C -550.61674,1285.4589 -549.09898,1282.9709 -546.56107,1281.8009 C -544.93577,1281.0517 -541.74448,1281.0885 -540.14245,1281.8749 C -538.55786,1282.6528 -537.14919,1284.1661 -536.52163,1285.7648 C -535.76223,1287.6993 -535.76576,1291.1782 -536.52907,1293.0945 C -537.18045,1294.7299 -538.53003,1296.1585 -540.13613,1296.913 C -541.66631,1297.6318 -544.35461,1297.7978 -545.81907,1297.264 z M -540.59712,1294.9607 C -539.83657,1294.4868 -539.27389,1293.8809 -538.77653,1293.0002 C -538.11023,1291.8204 -538.0567,1291.5607 -538.0567,1289.5083 C -538.0567,1287.499 -538.12223,1287.1629 -538.7555,1285.9239 C -539.28504,1284.8879 -539.72257,1284.3909 -540.56187,1283.872 C -543.29827,1282.1803 -547.1234,1283.2928 -548.25152,1286.1086 C -548.7868,1287.4447 -548.96162,1290.1078 -548.6102,1291.5727 C -547.73896,1295.2044 -543.71738,1296.9048 -540.59712,1294.9607 z M -520.13768,1297.3255 C -522.21005,1296.7415 -523.83298,1294.9305 -524.16937,1292.8264 L -524.32683,1291.8415 L -523.28185,1291.8415 C -522.24504,1291.8415 -522.23492,1291.8492 -521.9876,1292.8314 C -521.54915,1294.5726 -519.74639,1295.7859 -517.61223,1295.7761 C -514.62894,1295.7624 -512.79727,1293.3109 -514.49892,1291.6093 C -515.1275,1290.9807 -515.84241,1290.71 -519.64716,1289.6602 C -521.94913,1289.025 -523.27454,1287.7961 -523.50421,1286.0837 C -523.67104,1284.8399 -523.07458,1283.2424 -522.1542,1282.4679 C -520.75861,1281.2936 -517.9614,1280.8692 -515.83511,1281.5091 C -513.86812,1282.101 -512.69378,1283.3722 -512.30142,1285.334 C -512.15873,1286.0474 -512.15915,1286.0477 -513.2121,1286.0477 C -514.19439,1286.0477 -514.27585,1286.0007 -514.41839,1285.3517 C -514.6196,1284.4356 -515.71123,1283.3673 -516.63489,1283.1826 C -519.30992,1282.6476 -521.4866,1283.6302 -521.4866,1285.3728 C -521.4866,1286.4493 -520.68339,1287.1576 -518.8642,1287.6855 C -517.94847,1287.9513 -516.49073,1288.3737 -515.6248,1288.6243 C -513.79229,1289.1547 -512.3873,1290.2744 -511.97074,1291.5366 C -511.30869,1293.5427 -512.34908,1295.8646 -514.37778,1296.9086 C -515.7248,1297.6018 -518.4557,1297.7995 -520.13768,1297.3255 z M -566.21429,1289.4081 L -566.21429,1281.4127 L -565.17142,1281.4127 L -564.12854,1281.4127 L -564.12854,1284.6572 L -564.12854,1287.9017 L -560.07292,1287.9017 L -556.0173,1287.9017 L -556.0173,1284.6572 L -556.0173,1281.4127 L -554.97443,1281.4127 L -553.93156,1281.4127 L -553.93156,1289.4081 L -553.93156,1297.4035 L -554.97443,1297.4035 L -556.0173,1297.4035 L -556.0173,1293.5796 L -556.0173,1289.7557 L -560.07292,1289.7557 L -564.12854,1289.7557 L -564.12854,1293.5796 L -564.12854,1297.4035 L -565.17142,1297.4035 L -566.21429,1297.4035 L -566.21429,1289.4081 z M -174.78903,1257.6584 L -174.78903,1249.663 L -173.67373,1249.663 L -172.55846,1249.663 L -168.63318,1255.7694 L -164.70792,1261.8757 L -164.6462,1255.7694 L -164.58446,1249.663 L -163.54539,1249.663 L -162.5063,1249.663 L -162.5063,1257.6584 L -162.5063,1265.6538 L -163.62159,1265.6538 L -164.73686,1265.6538 L -168.66215,1259.5474 L -172.58741,1253.4411 L -172.64912,1259.5474 L -172.71086,1265.6538 L -173.74993,1265.6538 L -174.78903,1265.6538 L -174.78903,1257.6584 z M -162.11742,1247.4743 C -164.23897,1246.8649 -166.12857,1245.2383 -167.11288,1243.174 C -167.62933,1242.091 -167.72066,1241.586 -167.72066,1239.8137 C -167.72066,1238.0418 -167.62831,1237.5309 -167.10699,1236.419 C -164.83575,1231.5745 -158.41158,1230.2704 -154.56108,1233.8721 C -151.85605,1236.4023 -151.14942,1239.8242 -152.65202,1243.1168 C -154.25503,1246.6294 -158.40592,1248.5403 -162.11742,1247.4743 z M -157.50289,1246.1591 C -154.67188,1245.0999 -152.84039,1242.2658 -153.07012,1239.2997 C -153.51964,1233.496 -160.59735,1230.8518 -164.7002,1234.9546 C -167.88803,1238.1425 -167.15703,1243.3286 -163.17383,1245.7837 C -161.63098,1246.7346 -159.43047,1246.8803 -157.50289,1246.1591 z M -160.42055,1242.3629 L -160.42055,1240.393 L -162.39042,1240.393 C -164.33712,1240.393 -164.36029,1240.3862 -164.36029,1239.8137 C -164.36029,1239.2411 -164.33712,1239.2343 -162.39042,1239.2343 L -160.42055,1239.2343 L -160.42055,1237.2644 C -160.42055,1235.3177 -160.41373,1235.2945 -159.84117,1235.2945 C -159.26861,1235.2945 -159.2618,1235.3177 -159.2618,1237.2644 L -159.2618,1239.2343 L -157.29193,1239.2343 C -155.34523,1239.2343 -155.32205,1239.2411 -155.32205,1239.8137 C -155.32205,1240.3862 -155.34523,1240.393 -157.29193,1240.393 L -159.2618,1240.393 L -159.2618,1242.3629 C -159.2618,1244.3096 -159.26861,1244.3328 -159.84117,1244.3328 C -160.41373,1244.3328 -160.42055,1244.3096 -160.42055,1242.3629 z M -175.33675,1246.5995 C -176.33721,1245.0258 -187.76701,1225.0574 -187.76701,1224.8833 C -187.76701,1224.7359 -169.74495,1193.2751 -169.32996,1192.698 C -169.3021,1192.6593 -168.97383,1192.8157 -168.60043,1193.0457 L -167.92157,1193.4637 L -176.90365,1208.9909 C -181.84382,1217.5309 -185.89188,1224.6555 -185.89939,1224.8232 C -185.90991,1225.0586 -176.26451,1242.029 -174.07893,1245.6206 L -173.64782,1246.329 L -174.32426,1246.7285 C -174.98363,1247.118 -175.00917,1247.1148 -175.33675,1246.5995 z"
       id="path2453"
       style="fill:#000000" />
  </g>
</svg>
